<?xml version="1.0" encoding="UTF-8"?>
<!DOCTYPE svg PUBLIC "-//W3C//DTD SVG 1.1//EN" "http://www.w3.org/Graphics/SVG/1.1/DTD/svg11.dtd">
<svg xmlns="http://www.w3.org/2000/svg" version="1.1" width="917px" height="933px" style="shape-rendering:geometricPrecision; text-rendering:geometricPrecision; image-rendering:optimizeQuality; fill-rule:evenodd; clip-rule:evenodd" xmlns:xlink="http://www.w3.org/1999/xlink">
<g><path style="opacity:1" fill="#fefefe" d="M -0.5,-0.5 C 305.167,-0.5 610.833,-0.5 916.5,-0.5C 916.5,310.5 916.5,621.5 916.5,932.5C 610.833,932.5 305.167,932.5 -0.5,932.5C -0.5,621.5 -0.5,310.5 -0.5,-0.5 Z"/></g>
<g><path style="opacity:1" fill="#101010" d="M 557.5,499.5 C 556.957,499.56 556.624,499.893 556.5,500.5C 585.159,501.5 613.826,501.833 642.5,501.5C 717.085,597.591 790.751,694.425 863.5,792C 863.361,793.301 862.695,794.134 861.5,794.5C 586.833,794.5 312.167,794.5 37.5,794.5C 36.8333,794.5 36.5,794.167 36.5,793.5C 101.548,794.161 166.381,793.494 231,791.5C 233.193,791.283 235.527,791.616 238,792.5C 239.03,792.164 239.53,791.497 239.5,790.5C 244.5,790.5 249.5,790.5 254.5,790.5C 254.423,791.75 253.756,792.583 252.5,793C 308.833,793.667 365.167,793.667 421.5,793C 419.381,792.658 419.047,791.825 420.5,790.5C 422.833,790.5 425.167,790.5 427.5,790.5C 427.586,791.496 427.252,792.329 426.5,793C 475.503,793.833 524.503,793.667 573.5,792.5C 574.243,791.818 574.909,791.151 575.5,790.5C 582.5,790.5 589.5,790.5 596.5,790.5C 596.389,791.117 596.056,791.617 595.5,792C 592.668,792.212 590.002,792.379 587.5,792.5C 639.829,793.5 692.162,793.833 744.5,793.5C 744.5,792.5 744.5,791.5 744.5,790.5C 781.839,790.833 819.173,790.5 856.5,789.5C 856.376,788.893 856.043,788.56 855.5,788.5C 809.731,727.948 763.731,667.615 717.5,607.5C 716.214,604.883 714.547,602.55 712.5,600.5C 688.716,568.876 664.716,537.376 640.5,506C 635.177,505.501 629.844,505.334 624.5,505.5C 621.833,505.5 619.167,505.5 616.5,505.5C 595.489,505.167 574.489,505.5 553.5,506.5C 550.821,511.194 548.155,515.861 545.5,520.5C 543.847,523.131 542.181,525.797 540.5,528.5C 515.236,569.288 485.57,606.788 451.5,641C 450.167,641.667 448.833,641.667 447.5,641C 440.937,634.605 434.603,628.105 428.5,621.5C 405.551,595.57 384.551,568.237 365.5,539.5C 358.593,528.694 351.927,517.694 345.5,506.5C 316.506,505.333 287.506,505.167 258.5,506C 195.127,588.594 132.127,671.427 69.5,754.5C 66.8154,757.19 64.4821,760.19 62.5,763.5C 56.1667,771.5 49.8333,779.5 43.5,787.5C 43.5,785.5 42.5,784.5 40.5,784.5C 111.784,689.588 183.784,595.255 256.5,501.5C 285.174,501.833 313.841,501.5 342.5,500.5C 342.376,499.893 342.043,499.56 341.5,499.5C 307.154,439.636 283.988,375.636 272,307.5C 261.296,234.798 284.13,175.298 340.5,129C 400.709,86.5246 464.376,80.8579 531.5,112C 592.873,145.933 625.54,198.1 629.5,268.5C 628.589,306.478 622.089,343.478 610,379.5C 596.575,421.343 579.075,461.343 557.5,499.5 Z"/></g>
<g><path style="opacity:1" fill="#2c2c2c" d="M 341.5,499.5 C 342.043,499.56 342.376,499.893 342.5,500.5C 313.841,501.5 285.174,501.833 256.5,501.5C 284.833,500.833 313.167,500.167 341.5,499.5 Z"/></g>
<g><path style="opacity:1" fill="#2d2d2d" d="M 557.5,499.5 C 585.833,500.167 614.167,500.833 642.5,501.5C 613.826,501.833 585.159,501.5 556.5,500.5C 556.624,499.893 556.957,499.56 557.5,499.5 Z"/></g>
<g><path style="opacity:1" fill="#fcfcfc" d="M 365.5,539.5 C 351.833,539.5 338.167,539.5 324.5,539.5C 315.552,537.968 306.385,537.302 297,537.5C 290.5,537.667 284,537.833 277.5,538C 275.292,538.191 273.292,538.691 271.5,539.5C 258.522,541.748 248.355,548.414 241,559.5C 238.3,568.609 234.633,577.276 230,585.5C 228.1,589.632 227.267,593.966 227.5,598.5C 235.639,596.831 243.639,597.331 251.5,600C 254.773,602.978 258.44,605.478 262.5,607.5C 266.113,614.1 266.446,620.934 263.5,628C 263.905,628.945 264.572,629.612 265.5,630C 271.005,630.796 276.338,630.129 281.5,628C 287.108,624.724 292.442,621.057 297.5,617C 310.616,616.569 323.616,615.402 336.5,613.5C 341.766,613.463 346.766,614.63 351.5,617C 373.144,631.984 397.144,637.984 423.5,635C 425.691,630.584 427.358,626.084 428.5,621.5C 434.603,628.105 440.937,634.605 447.5,641C 448.833,641.667 450.167,641.667 451.5,641C 485.57,606.788 515.236,569.288 540.5,528.5C 542.701,531.021 545.034,533.521 547.5,536C 551.381,537.19 555.381,537.857 559.5,538C 560.984,538.662 562.317,539.496 563.5,540.5C 564.579,542.543 566.246,543.876 568.5,544.5C 569.601,545.598 570.934,545.765 572.5,545C 580.008,538.421 588.008,532.587 596.5,527.5C 597.5,527.5 598.5,527.5 599.5,527.5C 599.5,524.5 599.5,521.5 599.5,518.5C 591.316,518.174 583.316,518.508 575.5,519.5C 566.435,519.296 557.435,519.962 548.5,521.5C 547.274,521.48 546.274,521.147 545.5,520.5C 548.155,515.861 550.821,511.194 553.5,506.5C 574.489,505.5 595.489,505.167 616.5,505.5C 619.652,517.671 619.152,529.671 615,541.5C 611.833,548.667 606.667,553.833 599.5,557C 587.608,560.094 575.608,562.761 563.5,565C 547.964,568.867 539.13,578.7 537,594.5C 517.168,624.511 489.335,642.011 453.5,647C 425.906,649.769 398.239,651.102 370.5,651C 344.6,654.552 318.6,656.552 292.5,657C 288.462,657.899 284.795,659.566 281.5,662C 266.836,675.673 250.169,686.34 231.5,694C 215.546,699.911 199.546,705.911 183.5,712C 168.5,720.333 153.5,728.667 138.5,737C 116.241,746.814 93.241,752.647 69.5,754.5C 132.127,671.427 195.127,588.594 258.5,506C 287.506,505.167 316.506,505.333 345.5,506.5C 351.927,517.694 358.593,528.694 365.5,539.5 Z"/></g>
<g><path style="opacity:1" fill="#fcfcfc" d="M 624.5,505.5 C 629.844,505.334 635.177,505.501 640.5,506C 664.716,537.376 688.716,568.876 712.5,600.5C 699.114,609.689 684.114,613.523 667.5,612C 655.5,609.333 643.5,606.667 631.5,604C 611.375,602.712 591.708,605.045 572.5,611C 565.323,614.509 558.99,619.175 553.5,625C 541.566,630.519 529.233,631.685 516.5,628.5C 527.277,620.559 536.11,610.892 543,599.5C 544.644,594.923 545.978,590.256 547,585.5C 551.15,578.365 557.317,573.865 565.5,572C 576.922,570.096 588.256,567.763 599.5,565C 614.842,558.997 623.342,547.83 625,531.5C 625.632,522.814 625.466,514.148 624.5,505.5 Z"/></g>
<g><path style="opacity:1" fill="#b7efdc" d="M 575.5,519.5 C 583.316,518.508 591.316,518.174 599.5,518.5C 599.5,521.5 599.5,524.5 599.5,527.5C 598.5,527.5 597.5,527.5 596.5,527.5C 598.202,525.2 598.868,522.533 598.5,519.5C 590.833,519.5 583.167,519.5 575.5,519.5 Z"/></g>
<g><path style="opacity:1" fill="#57d3a7" d="M 575.5,519.5 C 583.167,519.5 590.833,519.5 598.5,519.5C 598.868,522.533 598.202,525.2 596.5,527.5C 588.008,532.587 580.008,538.421 572.5,545C 570.934,545.765 569.601,545.598 568.5,544.5C 569.552,544.649 570.552,544.483 571.5,544C 570.549,543.282 570.383,542.449 571,541.5C 574.234,537.928 577.734,534.761 581.5,532C 580.833,530 579.5,528.667 577.5,528C 573.833,527.667 570.167,527.333 566.5,527C 575.851,526.832 585.184,526.332 594.5,525.5C 593.5,524.833 592.5,524.167 591.5,523.5C 593.5,522.833 595.5,522.167 597.5,521.5C 581.731,519.881 566.064,520.548 550.5,523.5C 553.157,524.259 555.823,524.926 558.5,525.5C 560.088,528.468 559.255,530.468 556,531.5C 552.753,530.356 552.919,529.356 556.5,528.5C 556.291,527.914 555.957,527.414 555.5,527C 552.833,526.333 550.167,526.333 547.5,527C 549.256,527.202 550.922,527.702 552.5,528.5C 551.101,530.605 549.434,532.438 547.5,534C 550.75,533.43 554.084,532.93 557.5,532.5C 557.5,533.5 557.5,534.5 557.5,535.5C 559.451,535.773 560.951,535.107 562,533.5C 562.977,535.74 563.477,538.073 563.5,540.5C 562.317,539.496 560.984,538.662 559.5,538C 555.381,537.857 551.381,537.19 547.5,536C 545.034,533.521 542.701,531.021 540.5,528.5C 542.181,525.797 543.847,523.131 545.5,520.5C 546.274,521.147 547.274,521.48 548.5,521.5C 557.435,519.962 566.435,519.296 575.5,519.5 Z"/></g>
<g><path style="opacity:1" fill="#4ad6a5" d="M 568.5,544.5 C 566.246,543.876 564.579,542.543 563.5,540.5C 563.477,538.073 562.977,535.74 562,533.5C 560.951,535.107 559.451,535.773 557.5,535.5C 557.5,534.5 557.5,533.5 557.5,532.5C 554.084,532.93 550.75,533.43 547.5,534C 549.434,532.438 551.101,530.605 552.5,528.5C 550.922,527.702 549.256,527.202 547.5,527C 550.167,526.333 552.833,526.333 555.5,527C 555.957,527.414 556.291,527.914 556.5,528.5C 552.919,529.356 552.753,530.356 556,531.5C 559.255,530.468 560.088,528.468 558.5,525.5C 555.823,524.926 553.157,524.259 550.5,523.5C 566.064,520.548 581.731,519.881 597.5,521.5C 595.5,522.167 593.5,522.833 591.5,523.5C 592.5,524.167 593.5,524.833 594.5,525.5C 585.184,526.332 575.851,526.832 566.5,527C 570.167,527.333 573.833,527.667 577.5,528C 579.5,528.667 580.833,530 581.5,532C 577.734,534.761 574.234,537.928 571,541.5C 570.383,542.449 570.549,543.282 571.5,544C 570.552,544.483 569.552,544.649 568.5,544.5 Z"/></g>
<g><path style="opacity:1" fill="#70d2ae" d="M 324.5,539.5 C 306.831,538.205 289.164,538.205 271.5,539.5C 273.292,538.691 275.292,538.191 277.5,538C 284,537.833 290.5,537.667 297,537.5C 306.385,537.302 315.552,537.968 324.5,539.5 Z"/></g>
<g><path style="opacity:1" fill="#4dd5a5" d="M 324.5,539.5 C 338.167,539.5 351.833,539.5 365.5,539.5C 384.551,568.237 405.551,595.57 428.5,621.5C 427.358,626.084 425.691,630.584 423.5,635C 397.144,637.984 373.144,631.984 351.5,617C 346.766,614.63 341.766,613.463 336.5,613.5C 323.616,615.402 310.616,616.569 297.5,617C 292.442,621.057 287.108,624.724 281.5,628C 276.338,630.129 271.005,630.796 265.5,630C 264.572,629.612 263.905,628.945 263.5,628C 266.446,620.934 266.113,614.1 262.5,607.5C 258.44,605.478 254.773,602.978 251.5,600C 243.639,597.331 235.639,596.831 227.5,598.5C 227.267,593.966 228.1,589.632 230,585.5C 234.633,577.276 238.3,568.609 241,559.5C 248.355,548.414 258.522,541.748 271.5,539.5C 289.164,538.205 306.831,538.205 324.5,539.5 Z"/></g>
<g><path style="opacity:1" fill="#4fd5a6" d="M 649.5,535.5 C 655.302,534.006 659.136,536.006 661,541.5C 661.974,547.599 661.14,553.432 658.5,559C 660.007,563.178 662.174,567.011 665,570.5C 665.818,573.227 665.652,575.894 664.5,578.5C 651.216,579.482 637.883,579.815 624.5,579.5C 624.758,575.56 625.924,571.893 628,568.5C 634.707,561.462 641.04,554.128 647,546.5C 648.935,543.093 649.768,539.426 649.5,535.5 Z"/></g>
<g><path style="opacity:1" fill="#f0f6f5" d="M 433.5,97.5 C 513.919,95.2676 572.419,129.601 609,200.5C 625.366,238.915 629.033,278.581 620,319.5C 601.486,404.416 567.486,482.416 518,553.5C 497.584,582.758 474.751,610.091 449.5,635.5C 372.524,555.944 318.357,462.611 287,355.5C 279.574,327.851 275.407,299.685 274.5,271C 277.416,207.142 305.416,157.809 358.5,123C 381.805,109.177 406.805,100.677 433.5,97.5 Z"/></g>
<g><path style="opacity:1" fill="#1cc598" d="M 409.5,416.5 C 428.556,421.342 447.889,422.676 467.5,420.5C 467.389,421.117 467.056,421.617 466.5,422C 471.884,422.505 477.218,422.505 482.5,422C 476.401,424.058 470.068,425.225 463.5,425.5C 463.5,426.5 463.5,427.5 463.5,428.5C 469.012,429.201 474.345,430.535 479.5,432.5C 477.522,432.738 475.855,434.071 474.5,436.5C 472.792,434.309 470.792,433.976 468.5,435.5C 467.289,436.274 467.289,437.107 468.5,438C 466.575,439.595 464.575,439.762 462.5,438.5C 462.167,439 461.833,439.5 461.5,440C 462.799,441.326 464.132,442.66 465.5,444C 463.347,446.165 460.681,446.998 457.5,446.5C 457.89,443.161 458.39,439.827 459,436.5C 460.796,435.233 462.629,435.233 464.5,436.5C 465.429,435.311 465.762,433.978 465.5,432.5C 462.15,432.665 458.817,432.498 455.5,432C 459.5,431.667 463.5,431.333 467.5,431C 464.576,430.012 461.576,429.346 458.5,429C 462.852,428.581 463.185,427.914 459.5,427C 452.202,427.525 444.868,426.859 437.5,425C 446.186,424.832 454.852,424.332 463.5,423.5C 448.786,422.75 434.119,421.916 419.5,421C 424.688,422.643 430.022,423.643 435.5,424C 435.966,425.299 435.966,426.799 435.5,428.5C 438.898,428.18 442.232,428.513 445.5,429.5C 445.431,431.278 445.097,433.111 444.5,435C 446.034,437.145 447.368,439.479 448.5,442C 448.333,442.5 448.167,443 448,443.5C 442.542,442.102 442.209,442.769 447,445.5C 448.8,444.622 450.633,443.955 452.5,443.5C 452.703,441.61 452.037,440.11 450.5,439C 452.367,438.289 453.867,438.789 455,440.5C 454.793,442.751 454.627,445.085 454.5,447.5C 458.876,446.888 459.543,448.054 456.5,451C 454.301,452.583 451.968,452.75 449.5,451.5C 449.762,450.022 449.429,448.689 448.5,447.5C 447.808,448.025 447.308,448.692 447,449.5C 445.644,448.62 444.144,448.286 442.5,448.5C 442.719,449.675 442.386,450.675 441.5,451.5C 440.269,450.349 440.269,449.183 441.5,448C 439.009,444.533 438.175,440.7 439,436.5C 440.269,437.905 440.769,439.571 440.5,441.5C 441.5,441.5 442.5,441.5 443.5,441.5C 443.167,439.5 442.833,437.5 442.5,435.5C 436.732,434.267 434.066,436.6 434.5,442.5C 433.448,442.351 432.448,442.517 431.5,443C 432.634,444.016 432.301,444.683 430.5,445C 433.146,445.497 435.813,445.664 438.5,445.5C 438.156,448.562 437.489,451.562 436.5,454.5C 434.271,452.901 433.938,450.901 435.5,448.5C 434.833,448.167 434.167,447.833 433.5,447.5C 428.749,452.266 423.916,456.933 419,461.5C 418.729,463.807 419.895,464.974 422.5,465C 419.138,465.77 415.971,466.937 413,468.5C 410.696,468.682 410.196,468.016 411.5,466.5C 410.224,465.355 408.891,465.355 407.5,466.5C 407.804,468.877 407.471,471.377 406.5,474C 407.763,475.991 409.097,477.991 410.5,480C 408.575,479.865 406.575,479.698 404.5,479.5C 404.322,475.898 403.322,475.898 401.5,479.5C 400.749,478.624 400.249,477.624 400,476.5C 399.682,478.061 398.849,479.228 397.5,480C 399.632,481.587 401.798,483.087 404,484.5C 404.43,487.192 404.263,489.859 403.5,492.5C 402.178,492.33 401.011,492.663 400,493.5C 399.257,491.355 398.424,491.189 397.5,493C 397.905,493.945 398.572,494.612 399.5,495C 398.216,495.684 397.049,495.517 396,494.5C 394.737,490.177 395.904,486.844 399.5,484.5C 396.272,481.032 393.272,481.532 390.5,486C 388.687,485.954 387.021,486.12 385.5,486.5C 385.808,487.308 386.308,487.975 387,488.5C 388.699,487.594 390.533,487.261 392.5,487.5C 392.5,489.167 392.5,490.833 392.5,492.5C 389.813,492.664 387.146,492.497 384.5,492C 384.957,491.586 385.291,491.086 385.5,490.5C 383.437,488.28 381.604,485.946 380,483.5C 373.452,479.836 369.619,481.836 368.5,489.5C 368.833,492.01 369.833,494.177 371.5,496C 370.833,496.667 370.167,496.667 369.5,496C 367.495,493.489 364.995,491.656 362,490.5C 360.281,492.716 358.114,494.383 355.5,495.5C 354.614,496.325 354.281,497.325 354.5,498.5C 353.348,497.166 352.348,495.666 351.5,494C 351.82,492.347 352.82,491.347 354.5,491C 353.748,490.329 353.414,489.496 353.5,488.5C 355.974,485.791 358.14,486.125 360,489.5C 360.483,486.177 361.983,483.51 364.5,481.5C 366.936,482.891 367.602,482.391 366.5,480C 370.998,479.159 372.498,476.659 371,472.5C 371.333,472.167 371.667,471.833 372,471.5C 372.49,472.793 372.657,474.127 372.5,475.5C 374.484,475.383 376.15,476.05 377.5,477.5C 380.668,476.872 383.668,475.872 386.5,474.5C 389.314,474.981 390.648,476.648 390.5,479.5C 389.448,479.351 388.448,479.517 387.5,480C 390.785,483.397 393.118,482.73 394.5,478C 391.434,469.965 386.934,468.798 381,474.5C 380.228,474.355 379.561,474.022 379,473.5C 378.654,471.782 378.154,470.115 377.5,468.5C 379.398,467.266 381.065,467.599 382.5,469.5C 383.298,467.922 383.798,466.256 384,464.5C 387.465,464.033 389.132,462.033 389,458.5C 391.464,457.349 393.964,456.349 396.5,455.5C 396.5,454.5 396.5,453.5 396.5,452.5C 397.5,452.5 398.5,452.5 399.5,452.5C 397.93,448.137 399.264,444.97 403.5,443C 402.167,442 402.167,441 403.5,440C 404.793,439.51 406.127,439.343 407.5,439.5C 407.343,438.127 407.51,436.793 408,435.5C 408.333,436.167 408.667,436.833 409,437.5C 409.814,435.718 410.981,434.218 412.5,433C 410.715,431.837 408.715,431.17 406.5,431C 409.371,430.882 412.038,430.216 414.5,429C 411.471,428.461 408.471,427.794 405.5,427C 404.098,425.658 404.431,424.824 406.5,424.5C 410.138,425.182 413.805,425.682 417.5,426C 418.833,426.667 418.833,427.333 417.5,428C 420.791,429.544 424.124,429.711 427.5,428.5C 426.948,426.667 426.115,425 425,423.5C 424.667,423.833 424.333,424.167 424,424.5C 417.725,424.017 411.558,422.85 405.5,421C 405.167,420.667 404.833,420.333 404.5,420C 405.5,419.833 406.5,419.667 407.5,419.5C 410.221,420.454 412.888,420.454 415.5,419.5C 413.255,418.792 411.255,417.792 409.5,416.5 Z"/></g>
<g><path style="opacity:1" fill="#d7fbf8" d="M 422.5,444.5 C 424.977,444.051 426.977,444.717 428.5,446.5C 426.926,447.631 425.259,447.798 423.5,447C 422.748,446.329 422.414,445.496 422.5,444.5 Z"/></g>
<g><path style="opacity:1" fill="#15c697" d="M 536.5,423.5 C 535.282,422.839 533.949,422.172 532.5,421.5C 536.009,419.918 539.009,420.584 541.5,423.5C 542.251,422.624 542.751,421.624 543,420.5C 544.204,421.859 545.704,422.859 547.5,423.5C 546.311,424.429 544.978,424.762 543.5,424.5C 543.325,427.329 544.658,428.996 547.5,429.5C 545.424,430.1 543.424,430.433 541.5,430.5C 543.743,431.474 546.076,431.808 548.5,431.5C 548.5,429.167 548.5,426.833 548.5,424.5C 549.552,424.649 550.552,424.483 551.5,424C 550.269,422.817 550.269,421.651 551.5,420.5C 553.046,421.684 554.713,422.684 556.5,423.5C 554.069,424.36 552.736,426.027 552.5,428.5C 555.278,428.978 557.278,427.978 558.5,425.5C 561.777,427.357 562.11,429.524 559.5,432C 560.619,434.802 562.619,436.302 565.5,436.5C 565.351,437.552 565.517,438.552 566,439.5C 568.253,435.68 567.086,433.68 562.5,433.5C 563.569,430.74 564.569,427.907 565.5,425C 565.833,424.833 566.167,424.667 566.5,424.5C 567.452,426.045 567.785,427.712 567.5,429.5C 569.06,429.481 570.56,429.148 572,428.5C 574.802,429.619 576.302,431.619 576.5,434.5C 565.092,462.824 551.425,489.324 535.5,514C 534.865,518.481 532.365,520.981 528,521.5C 527.515,524.478 526.849,527.478 526,530.5C 503.663,565.005 478.163,597.005 449.5,626.5C 411.963,588.048 380.296,545.382 354.5,498.5C 354.281,497.325 354.614,496.325 355.5,495.5C 358.114,494.383 360.281,492.716 362,490.5C 364.995,491.656 367.495,493.489 369.5,496C 370.167,496.667 370.833,496.667 371.5,496C 369.833,494.177 368.833,492.01 368.5,489.5C 369.619,481.836 373.452,479.836 380,483.5C 381.604,485.946 383.437,488.28 385.5,490.5C 385.291,491.086 384.957,491.586 384.5,492C 387.146,492.497 389.813,492.664 392.5,492.5C 392.5,490.833 392.5,489.167 392.5,487.5C 390.533,487.261 388.699,487.594 387,488.5C 386.308,487.975 385.808,487.308 385.5,486.5C 387.021,486.12 388.687,485.954 390.5,486C 393.272,481.532 396.272,481.032 399.5,484.5C 395.904,486.844 394.737,490.177 396,494.5C 397.049,495.517 398.216,495.684 399.5,495C 398.572,494.612 397.905,493.945 397.5,493C 398.424,491.189 399.257,491.355 400,493.5C 401.011,492.663 402.178,492.33 403.5,492.5C 404.263,489.859 404.43,487.192 404,484.5C 401.798,483.087 399.632,481.587 397.5,480C 398.849,479.228 399.682,478.061 400,476.5C 400.249,477.624 400.749,478.624 401.5,479.5C 403.322,475.898 404.322,475.898 404.5,479.5C 406.575,479.698 408.575,479.865 410.5,480C 409.097,477.991 407.763,475.991 406.5,474C 407.471,471.377 407.804,468.877 407.5,466.5C 408.891,465.355 410.224,465.355 411.5,466.5C 410.196,468.016 410.696,468.682 413,468.5C 415.971,466.937 419.138,465.77 422.5,465C 419.895,464.974 418.729,463.807 419,461.5C 423.916,456.933 428.749,452.266 433.5,447.5C 434.167,447.833 434.833,448.167 435.5,448.5C 433.938,450.901 434.271,452.901 436.5,454.5C 437.489,451.562 438.156,448.562 438.5,445.5C 435.813,445.664 433.146,445.497 430.5,445C 432.301,444.683 432.634,444.016 431.5,443C 432.448,442.517 433.448,442.351 434.5,442.5C 434.066,436.6 436.732,434.267 442.5,435.5C 442.833,437.5 443.167,439.5 443.5,441.5C 442.5,441.5 441.5,441.5 440.5,441.5C 440.769,439.571 440.269,437.905 439,436.5C 438.175,440.7 439.009,444.533 441.5,448C 440.269,449.183 440.269,450.349 441.5,451.5C 442.386,450.675 442.719,449.675 442.5,448.5C 444.144,448.286 445.644,448.62 447,449.5C 447.308,448.692 447.808,448.025 448.5,447.5C 449.429,448.689 449.762,450.022 449.5,451.5C 451.968,452.75 454.301,452.583 456.5,451C 459.543,448.054 458.876,446.888 454.5,447.5C 454.627,445.085 454.793,442.751 455,440.5C 453.867,438.789 452.367,438.289 450.5,439C 452.037,440.11 452.703,441.61 452.5,443.5C 450.633,443.955 448.8,444.622 447,445.5C 442.209,442.769 442.542,442.102 448,443.5C 448.167,443 448.333,442.5 448.5,442C 447.368,439.479 446.034,437.145 444.5,435C 445.097,433.111 445.431,431.278 445.5,429.5C 442.232,428.513 438.898,428.18 435.5,428.5C 435.966,426.799 435.966,425.299 435.5,424C 430.022,423.643 424.688,422.643 419.5,421C 434.119,421.916 448.786,422.75 463.5,423.5C 454.852,424.332 446.186,424.832 437.5,425C 444.868,426.859 452.202,427.525 459.5,427C 463.185,427.914 462.852,428.581 458.5,429C 461.576,429.346 464.576,430.012 467.5,431C 463.5,431.333 459.5,431.667 455.5,432C 458.817,432.498 462.15,432.665 465.5,432.5C 465.762,433.978 465.429,435.311 464.5,436.5C 462.629,435.233 460.796,435.233 459,436.5C 458.39,439.827 457.89,443.161 457.5,446.5C 460.681,446.998 463.347,446.165 465.5,444C 464.132,442.66 462.799,441.326 461.5,440C 461.833,439.5 462.167,439 462.5,438.5C 464.575,439.762 466.575,439.595 468.5,438C 467.289,437.107 467.289,436.274 468.5,435.5C 470.792,433.976 472.792,434.309 474.5,436.5C 475.855,434.071 477.522,432.738 479.5,432.5C 474.345,430.535 469.012,429.201 463.5,428.5C 463.5,427.5 463.5,426.5 463.5,425.5C 470.068,425.225 476.401,424.058 482.5,422C 477.218,422.505 471.884,422.505 466.5,422C 467.056,421.617 467.389,421.117 467.5,420.5C 475.738,418.861 484.071,417.028 492.5,415C 501.969,411.43 511.302,407.597 520.5,403.5C 522.927,402.026 525.26,402.193 527.5,404C 526.711,407.097 525.544,407.264 524,404.5C 522.693,405.772 521.193,406.772 519.5,407.5C 521.894,408.349 524.227,409.349 526.5,410.5C 528.633,408.909 530.299,406.909 531.5,404.5C 532.308,404.808 532.975,405.308 533.5,406C 531.87,409.062 532.87,410.729 536.5,411C 537.668,412.871 537.168,414.371 535,415.5C 533.315,413.983 531.815,412.316 530.5,410.5C 526.763,412.168 526.763,413.501 530.5,414.5C 529.41,415.609 529.41,416.609 530.5,417.5C 533.647,416.025 536.647,416.192 539.5,418C 536.242,418.212 533.076,418.712 530,419.5C 529.333,422.833 529.333,426.167 530,429.5C 532.432,430.45 534.932,430.45 537.5,429.5C 537.519,427.94 537.852,426.44 538.5,425C 538.164,423.97 537.497,423.47 536.5,423.5 Z"/></g>
<g><path style="opacity:1" fill="#aef2e9" d="M 447.5,577.5 C 448.5,577.5 449.5,577.5 450.5,577.5C 450.5,578.5 450.5,579.5 450.5,580.5C 449.5,580.5 448.5,580.5 447.5,580.5C 447.5,579.5 447.5,578.5 447.5,577.5 Z"/></g>
<g><path style="opacity:1" fill="#b0faf2" d="M 440.5,570.5 C 441.962,571.458 443.295,572.624 444.5,574C 441.862,574.509 440.528,573.342 440.5,570.5 Z"/></g>
<g><path style="opacity:1" fill="#d4f8f4" d="M 445.5,563.5 C 448.81,563.461 451.476,564.794 453.5,567.5C 451.534,568.372 449.534,568.205 447.5,567C 446.177,566.184 445.511,565.017 445.5,563.5 Z"/></g>
<g><path style="opacity:1" fill="#c9f9f3" d="M 415.5,554.5 C 417.048,554.821 417.715,555.821 417.5,557.5C 415.396,557.799 413.396,557.466 411.5,556.5C 412.949,555.828 414.282,555.161 415.5,554.5 Z"/></g>
<g><path style="opacity:1" fill="#e6f8fb" d="M 450.5,552.5 C 452.824,552.662 454.491,553.828 455.5,556C 450.773,558.619 449.107,557.453 450.5,552.5 Z"/></g>
<g><path style="opacity:1" fill="#b0f8ed" d="M 458.5,545.5 C 461.041,546.623 461.041,547.956 458.5,549.5C 457.374,548.192 457.374,546.858 458.5,545.5 Z"/></g>
<g><path style="opacity:1" fill="#e5f7f9" d="M 399.5,544.5 C 401.346,544.222 402.68,544.889 403.5,546.5C 402.311,547.429 400.978,547.762 399.5,547.5C 399.5,546.5 399.5,545.5 399.5,544.5 Z"/></g>
<g><path style="opacity:1" fill="#d7f6f7" d="M 491.5,525.5 C 493.337,525.639 493.67,526.306 492.5,527.5C 491.702,527.043 491.369,526.376 491.5,525.5 Z"/></g>
<g><path style="opacity:1" fill="#e0fbfa" d="M 516.5,515.5 C 519.564,515.981 520.398,517.314 519,519.5C 517.519,518.529 516.685,517.196 516.5,515.5 Z"/></g>
<g><path style="opacity:1" fill="#dcf6f4" d="M 491.5,513.5 C 492.978,513.238 494.311,513.571 495.5,514.5C 494.68,516.111 493.346,516.778 491.5,516.5C 491.5,515.5 491.5,514.5 491.5,513.5 Z"/></g>
<g><path style="opacity:1" fill="#baf5ec" d="M 389.5,488.5 C 391.048,488.821 391.715,489.821 391.5,491.5C 387.627,491.666 386.96,490.666 389.5,488.5 Z"/></g>
<g><path style="opacity:1" fill="#d4fcfa" d="M 494.5,487.5 C 499.421,487.135 499.755,488.135 495.5,490.5C 493.481,489.867 493.147,488.867 494.5,487.5 Z"/></g>
<g><path style="opacity:1" fill="#c5f8f3" d="M 521.5,458.5 C 522.5,458.5 523.5,458.5 524.5,458.5C 524.5,459.5 524.5,460.5 524.5,461.5C 521.433,461.879 520.433,460.879 521.5,458.5 Z"/></g>
<g><path style="opacity:1" fill="#d5fcf9" d="M 436.5,458.5 C 440.968,458.748 442.468,461.082 441,465.5C 439.833,463 438,461.167 435.5,460C 436.056,459.617 436.389,459.117 436.5,458.5 Z"/></g>
<g><path style="opacity:1" fill="#c5f7f4" d="M 487.5,445.5 C 489.263,444.666 490.93,445.166 492.5,447C 490.505,447.613 488.838,447.113 487.5,445.5 Z"/></g>
<g><path style="opacity:1" fill="#dffcfb" d="M 458.5,443.5 C 460.199,443.34 461.866,443.506 463.5,444C 461.415,446.139 459.749,445.972 458.5,443.5 Z"/></g>
<g><path style="opacity:1" fill="#d0f6ee" d="M 281.5,258.5 C 281.358,273.515 281.691,288.515 282.5,303.5C 281.169,296.364 280.503,288.864 280.5,281C 280.5,273.326 280.834,265.826 281.5,258.5 Z"/></g>
<g><path style="opacity:1" fill="#1ac697" d="M 576.5,434.5 C 576.302,431.619 574.802,429.619 572,428.5C 570.56,429.148 569.06,429.481 567.5,429.5C 567.785,427.712 567.452,426.045 566.5,424.5C 566.167,424.667 565.833,424.833 565.5,425C 564.569,427.907 563.569,430.74 562.5,433.5C 567.086,433.68 568.253,435.68 566,439.5C 565.517,438.552 565.351,437.552 565.5,436.5C 562.619,436.302 560.619,434.802 559.5,432C 562.11,429.524 561.777,427.357 558.5,425.5C 557.278,427.978 555.278,428.978 552.5,428.5C 552.736,426.027 554.069,424.36 556.5,423.5C 554.713,422.684 553.046,421.684 551.5,420.5C 550.269,421.651 550.269,422.817 551.5,424C 550.552,424.483 549.552,424.649 548.5,424.5C 548.5,426.833 548.5,429.167 548.5,431.5C 546.076,431.808 543.743,431.474 541.5,430.5C 543.424,430.433 545.424,430.1 547.5,429.5C 544.658,428.996 543.325,427.329 543.5,424.5C 544.978,424.762 546.311,424.429 547.5,423.5C 545.704,422.859 544.204,421.859 543,420.5C 542.751,421.624 542.251,422.624 541.5,423.5C 539.009,420.584 536.009,419.918 532.5,421.5C 533.949,422.172 535.282,422.839 536.5,423.5C 537.497,423.47 538.164,423.97 538.5,425C 537.852,426.44 537.519,427.94 537.5,429.5C 534.932,430.45 532.432,430.45 530,429.5C 529.333,426.167 529.333,422.833 530,419.5C 533.076,418.712 536.242,418.212 539.5,418C 536.647,416.192 533.647,416.025 530.5,417.5C 529.41,416.609 529.41,415.609 530.5,414.5C 526.763,413.501 526.763,412.168 530.5,410.5C 531.815,412.316 533.315,413.983 535,415.5C 537.168,414.371 537.668,412.871 536.5,411C 532.87,410.729 531.87,409.062 533.5,406C 532.975,405.308 532.308,404.808 531.5,404.5C 530.299,406.909 528.633,408.909 526.5,410.5C 524.227,409.349 521.894,408.349 519.5,407.5C 521.193,406.772 522.693,405.772 524,404.5C 525.544,407.264 526.711,407.097 527.5,404C 525.26,402.193 522.927,402.026 520.5,403.5C 563.329,377.879 588.162,340.212 595,290.5C 599.152,248.3 587.652,211.134 560.5,179C 562.037,177.89 562.703,176.39 562.5,174.5C 560.488,175.014 558.488,175.18 556.5,175C 554.806,173.061 552.973,171.228 551,169.5C 550.333,168.5 550.333,167.5 551,166.5C 553.225,163.8 554.725,160.8 555.5,157.5C 554.167,157.5 552.833,157.5 551.5,157.5C 551.867,161.05 550.867,164.05 548.5,166.5C 507.206,131.695 460.206,120.862 407.5,134C 361.108,148.892 329.108,179.058 311.5,224.5C 307.625,224.705 305.959,226.705 306.5,230.5C 307.5,230.5 308.5,230.5 309.5,230.5C 294.963,282.375 304.463,329.041 338,370.5C 345.4,378.57 353.4,385.904 362,392.5C 362.311,393.742 361.811,394.742 360.5,395.5C 360.709,396.086 361.043,396.586 361.5,397C 363.107,397.115 364.607,396.615 366,395.5C 373.538,401.125 381.704,405.625 390.5,409C 391.112,410.303 391.446,411.47 391.5,412.5C 392.5,411.833 393.5,411.167 394.5,410.5C 399.452,412.921 404.452,414.921 409.5,416.5C 411.255,417.792 413.255,418.792 415.5,419.5C 412.888,420.454 410.221,420.454 407.5,419.5C 406.5,419.667 405.5,419.833 404.5,420C 404.833,420.333 405.167,420.667 405.5,421C 411.558,422.85 417.725,424.017 424,424.5C 424.333,424.167 424.667,423.833 425,423.5C 426.115,425 426.948,426.667 427.5,428.5C 424.124,429.711 420.791,429.544 417.5,428C 418.833,427.333 418.833,426.667 417.5,426C 413.805,425.682 410.138,425.182 406.5,424.5C 404.431,424.824 404.098,425.658 405.5,427C 408.471,427.794 411.471,428.461 414.5,429C 412.038,430.216 409.371,430.882 406.5,431C 408.715,431.17 410.715,431.837 412.5,433C 410.981,434.218 409.814,435.718 409,437.5C 408.667,436.833 408.333,436.167 408,435.5C 407.51,436.793 407.343,438.127 407.5,439.5C 406.127,439.343 404.793,439.51 403.5,440C 402.167,441 402.167,442 403.5,443C 399.264,444.97 397.93,448.137 399.5,452.5C 398.5,452.5 397.5,452.5 396.5,452.5C 396.5,453.5 396.5,454.5 396.5,455.5C 393.964,456.349 391.464,457.349 389,458.5C 389.132,462.033 387.465,464.033 384,464.5C 383.798,466.256 383.298,467.922 382.5,469.5C 381.065,467.599 379.398,467.266 377.5,468.5C 378.154,470.115 378.654,471.782 379,473.5C 379.561,474.022 380.228,474.355 381,474.5C 386.934,468.798 391.434,469.965 394.5,478C 393.118,482.73 390.785,483.397 387.5,480C 388.448,479.517 389.448,479.351 390.5,479.5C 390.648,476.648 389.314,474.981 386.5,474.5C 383.668,475.872 380.668,476.872 377.5,477.5C 376.15,476.05 374.484,475.383 372.5,475.5C 372.657,474.127 372.49,472.793 372,471.5C 371.667,471.833 371.333,472.167 371,472.5C 372.498,476.659 370.998,479.159 366.5,480C 367.602,482.391 366.936,482.891 364.5,481.5C 361.983,483.51 360.483,486.177 360,489.5C 358.14,486.125 355.974,485.791 353.5,488.5C 351.99,487.272 350.49,487.272 349,488.5C 316.039,430.605 293.873,368.938 282.5,303.5C 281.691,288.515 281.358,273.515 281.5,258.5C 287.261,202.228 313.928,158.728 361.5,128C 402.736,104.531 446.569,98.364 493,109.5C 548.293,125.049 586.959,160.715 609,216.5C 617.129,241.553 619.796,267.219 617,293.5C 614.775,313.066 611.275,332.399 606.5,351.5C 604.463,349.23 602.796,349.73 601.5,353C 602.477,354.497 603.477,355.997 604.5,357.5C 598.158,381.217 590.158,403.884 580.5,425.5C 577.204,424.442 575.537,425.775 575.5,429.5C 576.978,429.238 578.311,429.571 579.5,430.5C 578.479,431.901 577.479,433.235 576.5,434.5 Z"/></g>
<g><path style="opacity:1" fill="#d0fef9" d="M 340.5,437.5 C 343.085,438.465 343.585,439.799 342,441.5C 339.971,440.486 339.471,439.153 340.5,437.5 Z"/></g>
<g><path style="opacity:1" fill="#e5f9f8" d="M 434.5,431.5 C 437.572,431.183 440.572,431.516 443.5,432.5C 442,432.833 440.5,433.167 439,433.5C 437.014,433.431 435.514,432.765 434.5,431.5 Z"/></g>
<g><path style="opacity:1" fill="#cefbf6" d="M 536.5,423.5 C 536.333,426.957 535.333,427.29 533.5,424.5C 534.325,423.614 535.325,423.281 536.5,423.5 Z"/></g>
<g><path style="opacity:1" fill="#c8fcf4" d="M 573.5,405.5 C 578.639,406.941 578.639,407.941 573.5,408.5C 573.5,407.5 573.5,406.5 573.5,405.5 Z"/></g>
<g><path style="opacity:1" fill="#8fecd6" d="M 532.5,401.5 C 535.01,401.991 537.344,402.991 539.5,404.5C 537.534,405.372 535.534,405.205 533.5,404C 532.748,403.329 532.414,402.496 532.5,401.5 Z"/></g>
<g><path style="opacity:1" fill="#e7fbfb" d="M 565.5,400.5 C 567.982,402.975 567.316,404.975 563.5,406.5C 563.167,406 562.833,405.5 562.5,405C 563.315,403.357 564.315,401.857 565.5,400.5 Z"/></g>
<g><path style="opacity:1" fill="#aff3ec" d="M 556.5,397.5 C 557.892,396.478 559.225,396.811 560.5,398.5C 560,398.833 559.5,399.167 559,399.5C 557.989,398.944 557.156,398.278 556.5,397.5 Z"/></g>
<g><path style="opacity:1" fill="#e2fbfb" d="M 309.5,382.5 C 311.655,382.372 313.655,382.872 315.5,384C 312.656,386.29 310.656,385.79 309.5,382.5 Z"/></g>
<g><path style="opacity:1" fill="#f1f6f6" d="M 520.5,403.5 C 511.302,407.597 501.969,411.43 492.5,415C 484.071,417.028 475.738,418.861 467.5,420.5C 447.889,422.676 428.556,421.342 409.5,416.5C 404.452,414.921 399.452,412.921 394.5,410.5C 393.5,411.167 392.5,411.833 391.5,412.5C 391.446,411.47 391.112,410.303 390.5,409C 381.704,405.625 373.538,401.125 366,395.5C 364.607,396.615 363.107,397.115 361.5,397C 361.043,396.586 360.709,396.086 360.5,395.5C 361.811,394.742 362.311,393.742 362,392.5C 353.4,385.904 345.4,378.57 338,370.5C 304.463,329.041 294.963,282.375 309.5,230.5C 308.5,230.5 307.5,230.5 306.5,230.5C 305.959,226.705 307.625,224.705 311.5,224.5C 329.108,179.058 361.108,148.892 407.5,134C 460.206,120.862 507.206,131.695 548.5,166.5C 550.867,164.05 551.867,161.05 551.5,157.5C 552.833,157.5 554.167,157.5 555.5,157.5C 554.725,160.8 553.225,163.8 551,166.5C 550.333,167.5 550.333,168.5 551,169.5C 552.973,171.228 554.806,173.061 556.5,175C 558.488,175.18 560.488,175.014 562.5,174.5C 562.703,176.39 562.037,177.89 560.5,179C 587.652,211.134 599.152,248.3 595,290.5C 588.162,340.212 563.329,377.879 520.5,403.5 Z"/></g>
<g><path style="opacity:1" fill="#0d0d0d" d="M 433.5,134.5 C 493.191,131.26 539.024,154.593 571,204.5C 593.801,247.332 595.468,290.999 576,335.5C 544.418,393.216 495.585,419.382 429.5,414C 371.035,402.868 332.535,369.034 314,312.5C 299.627,244.122 321.46,190.955 379.5,153C 396.539,143.628 414.539,137.462 433.5,134.5 Z"/></g>
<g><path style="opacity:1" fill="#d2fdf8" d="M 591.5,374.5 C 594.838,375.193 595.338,376.86 593,379.5C 591.731,378.095 591.231,376.429 591.5,374.5 Z"/></g>
<g><path style="opacity:1" fill="#d3fcf9" d="M 592.5,342.5 C 595.275,342.834 595.941,344.167 594.5,346.5C 592.889,345.68 592.222,344.346 592.5,342.5 Z"/></g>
<g><path style="opacity:1" fill="#c6f7f2" d="M 592.5,312.5 C 593.5,312.5 594.5,312.5 595.5,312.5C 594.754,316.31 593.754,316.31 592.5,312.5 Z"/></g>
<g><path style="opacity:1" fill="#c7f6f0" d="M 607.5,287.5 C 608.833,287.5 610.167,287.5 611.5,287.5C 611.5,288.5 611.5,289.5 611.5,290.5C 610.167,290.5 608.833,290.5 607.5,290.5C 607.5,289.5 607.5,288.5 607.5,287.5 Z"/></g>
<g><path style="opacity:1" fill="#c9f5ef" d="M 284.5,271.5 C 285.675,271.281 286.675,271.614 287.5,272.5C 286.923,274.55 285.59,275.55 283.5,275.5C 283.433,274.041 283.766,272.708 284.5,271.5 Z"/></g>
<g><path style="opacity:1" fill="#92e5d0" d="M 297.5,260.5 C 298.5,260.5 299.5,260.5 300.5,260.5C 300.5,262.833 300.5,265.167 300.5,267.5C 299.5,267.5 298.5,267.5 297.5,267.5C 297.5,265.167 297.5,262.833 297.5,260.5 Z"/></g>
<g><path style="opacity:1" fill="#c3fdf5" d="M 604.5,230.5 C 605.833,230.5 607.167,230.5 608.5,230.5C 608.5,231.5 608.5,232.5 608.5,233.5C 606.027,233.912 604.694,232.912 604.5,230.5 Z"/></g>
<g><path style="opacity:1" fill="#c0fcf4" d="M 302.5,217.5 C 306.31,218.754 306.31,219.754 302.5,220.5C 302.5,219.5 302.5,218.5 302.5,217.5 Z"/></g>
<g><path style="opacity:1" fill="#c0f8ee" d="M 567.5,177.5 C 568.833,177.5 570.167,177.5 571.5,177.5C 571.5,178.5 571.5,179.5 571.5,180.5C 570.167,180.5 568.833,180.5 567.5,180.5C 567.5,179.5 567.5,178.5 567.5,177.5 Z"/></g>
<g><path style="opacity:1" fill="#e9f4f6" d="M 539.5,139.5 C 541.176,140.183 541.843,141.517 541.5,143.5C 540.167,143.5 538.833,143.5 537.5,143.5C 537.527,141.801 538.194,140.467 539.5,139.5 Z"/></g>
<g><path style="opacity:1" fill="#fcfcfc" d="M 437.5,141.5 C 493.763,140.041 536.596,163.041 566,210.5C 591.483,262.451 587.15,311.784 553,358.5C 515.39,400.59 468.89,415.423 413.5,403C 356.371,383.868 324.205,344.368 317,284.5C 315.106,228.779 337.939,186.612 385.5,158C 401.976,149.389 419.309,143.889 437.5,141.5 Z"/></g>
<g><path style="opacity:1" fill="#0c0808" d="M 404.5,194.5 C 418.278,192.612 430.944,195.446 442.5,203C 468.667,229.167 494.833,255.333 521,281.5C 531.231,297.884 532.231,314.884 524,332.5C 507.902,354.974 487.069,360.808 461.5,350C 459.5,348.667 457.5,347.333 455.5,346C 429.667,320.167 403.833,294.333 378,268.5C 361.337,240.326 366.504,217.16 393.5,199C 397.307,197.572 400.974,196.072 404.5,194.5 Z"/></g>
<g><path style="opacity:1" fill="#df3f53" d="M 447.5,272.5 C 442.833,277.833 437.833,282.833 432.5,287.5C 431.734,284.688 433.067,282.855 436.5,282C 433.67,279.356 434.004,278.522 437.5,279.5C 438.421,277.244 440.088,276.244 442.5,276.5C 442.281,272.363 443.947,271.029 447.5,272.5 Z"/></g>
<g><path style="opacity:1" fill="#fbfbfb" d="M 478.5,248.5 C 479.552,248.351 480.552,248.517 481.5,249C 492.333,259.833 503.167,270.667 514,281.5C 526.905,298.085 527.905,315.418 517,333.5C 500.632,351.855 481.799,355.022 460.5,343C 447.348,331.015 434.682,318.515 422.5,305.5C 441.188,286.479 459.855,267.479 478.5,248.5 Z"/></g>
<g><path style="opacity:1" fill="#751824" d="M 375.5,229.5 C 374.708,235.13 374.375,240.797 374.5,246.5C 373.837,244.359 373.503,242.025 373.5,239.5C 373.315,235.859 373.981,232.526 375.5,229.5 Z"/></g>
<g><path style="opacity:1" fill="#dd4257" d="M 383.5,214.5 C 382.519,216.489 381.519,218.489 380.5,220.5C 380.529,222.029 381.196,223.196 382.5,224C 381.324,225.914 380.324,225.748 379.5,223.5C 378.355,224.776 378.355,226.109 379.5,227.5C 377.06,229.109 375.893,231.443 376,234.5C 375.873,241.53 376.373,248.53 377.5,255.5C 376.131,252.702 375.131,249.702 374.5,246.5C 374.375,240.797 374.708,235.13 375.5,229.5C 376.347,223.47 379.013,218.47 383.5,214.5 Z"/></g>
<g><path style="opacity:1" fill="#fc3f54" d="M 428.5,202.5 C 432.856,203.511 436.856,205.344 440.5,208C 452.542,219.708 464.209,231.708 475.5,244C 466.674,253.993 457.34,263.493 447.5,272.5C 443.947,271.029 442.281,272.363 442.5,276.5C 440.088,276.244 438.421,277.244 437.5,279.5C 434.004,278.522 433.67,279.356 436.5,282C 433.067,282.855 431.734,284.688 432.5,287.5C 428.184,292.994 423.184,297.494 417.5,301C 406.306,289.806 395.14,278.64 384,267.5C 381.128,263.817 378.962,259.817 377.5,255.5C 376.373,248.53 375.873,241.53 376,234.5C 375.893,231.443 377.06,229.109 379.5,227.5C 378.355,226.109 378.355,224.776 379.5,223.5C 380.324,225.748 381.324,225.914 382.5,224C 381.196,223.196 380.529,222.029 380.5,220.5C 381.519,218.489 382.519,216.489 383.5,214.5C 387.345,208.672 392.679,204.672 399.5,202.5C 409.174,199.874 418.841,199.874 428.5,202.5 Z"/></g>
<g><path style="opacity:1" fill="#b53849" d="M 428.5,202.5 C 418.841,199.874 409.174,199.874 399.5,202.5C 404.08,200.061 409.08,199.061 414.5,199.5C 417.5,199.667 420.5,199.833 423.5,200C 425.491,200.374 427.158,201.207 428.5,202.5 Z"/></g>
<g><path style="opacity:1" fill="#c9f8f5" d="M 459.5,111.5 C 460.239,111.369 460.906,111.536 461.5,112C 460.44,113.298 459.274,114.465 458,115.5C 457.5,115.167 457,114.833 456.5,114.5C 457.34,113.265 458.34,112.265 459.5,111.5 Z"/></g>
<g><path style="opacity:1" fill="#d8fefb" d="M 467.5,586.5 C 468.5,586.5 469.5,586.5 470.5,586.5C 469.754,590.31 468.754,590.31 467.5,586.5 Z"/></g>
<g><path style="opacity:1" fill="#b09190" d="M 616.5,505.5 C 619.167,505.5 621.833,505.5 624.5,505.5C 625.466,514.148 625.632,522.814 625,531.5C 623.342,547.83 614.842,558.997 599.5,565C 588.256,567.763 576.922,570.096 565.5,572C 557.317,573.865 551.15,578.365 547,585.5C 545.978,590.256 544.644,594.923 543,599.5C 536.11,610.892 527.277,620.559 516.5,628.5C 529.233,631.685 541.566,630.519 553.5,625C 558.99,619.175 565.323,614.509 572.5,611C 591.708,605.045 611.375,602.712 631.5,604C 643.5,606.667 655.5,609.333 667.5,612C 684.114,613.523 699.114,609.689 712.5,600.5C 714.547,602.55 716.214,604.883 717.5,607.5C 700.76,617.017 682.76,620.85 663.5,619C 649.903,614.975 636.069,612.142 622,610.5C 605.02,610.811 588.52,613.645 572.5,619C 566.877,622.955 561.543,627.288 556.5,632C 547.836,636.29 538.669,638.124 529,637.5C 521.928,637.947 515.095,636.947 508.5,634.5C 492.301,644.846 474.634,651.346 455.5,654C 425.222,656.548 394.888,658.214 364.5,659C 341.671,662.846 318.671,664.513 295.5,664C 291.951,664.774 288.618,666.107 285.5,668C 267.383,684.4 246.717,696.734 223.5,705C 209.945,709.407 196.612,714.407 183.5,720C 168.661,728.587 153.661,736.92 138.5,745C 114.087,754.936 88.754,761.103 62.5,763.5C 64.4821,760.19 66.8154,757.19 69.5,754.5C 93.241,752.647 116.241,746.814 138.5,737C 153.5,728.667 168.5,720.333 183.5,712C 199.546,705.911 215.546,699.911 231.5,694C 250.169,686.34 266.836,675.673 281.5,662C 284.795,659.566 288.462,657.899 292.5,657C 318.6,656.552 344.6,654.552 370.5,651C 398.239,651.102 425.906,649.769 453.5,647C 489.335,642.011 517.168,624.511 537,594.5C 539.13,578.7 547.964,568.867 563.5,565C 575.608,562.761 587.608,560.094 599.5,557C 606.667,553.833 611.833,548.667 615,541.5C 619.152,529.671 619.652,517.671 616.5,505.5 Z"/></g>
<g><path style="opacity:1" fill="#fcfdfd" d="M 717.5,607.5 C 763.731,667.615 809.731,727.948 855.5,788.5C 584.833,789.833 314.167,789.833 43.5,788.5C 43.5,788.167 43.5,787.833 43.5,787.5C 49.8333,779.5 56.1667,771.5 62.5,763.5C 88.754,761.103 114.087,754.936 138.5,745C 153.661,736.92 168.661,728.587 183.5,720C 196.612,714.407 209.945,709.407 223.5,705C 246.717,696.734 267.383,684.4 285.5,668C 288.618,666.107 291.951,664.774 295.5,664C 318.671,664.513 341.671,662.846 364.5,659C 394.888,658.214 425.222,656.548 455.5,654C 474.634,651.346 492.301,644.846 508.5,634.5C 515.095,636.947 521.928,637.947 529,637.5C 538.669,638.124 547.836,636.29 556.5,632C 561.543,627.288 566.877,622.955 572.5,619C 588.52,613.645 605.02,610.811 622,610.5C 636.069,612.142 649.903,614.975 663.5,619C 682.76,620.85 700.76,617.017 717.5,607.5 Z"/></g>
<g><path style="opacity:1" fill="#defcfa" d="M 447.5,611.5 C 451.394,611.186 454.727,612.353 457.5,615C 456.975,615.692 456.308,616.192 455.5,616.5C 452.06,615.795 449.394,614.129 447.5,611.5 Z"/></g>
<g><path style="opacity:1" fill="#50d5a6" d="M 207.5,630.5 C 211.5,630.5 215.5,630.5 219.5,630.5C 220.788,634.958 223.121,638.791 226.5,642C 230.281,644.225 234.281,645.891 238.5,647C 246.447,647.282 254.114,648.782 261.5,651.5C 262.583,652.365 262.749,653.365 262,654.5C 259.612,657.634 256.446,659.467 252.5,660C 241.008,662.971 229.341,664.971 217.5,666C 208.469,667.67 200.136,671.004 192.5,676C 183.469,684.696 174.803,693.696 166.5,703C 159.013,708.327 150.68,710.494 141.5,709.5C 141.61,706 142.443,702.666 144,699.5C 146.833,696.667 149.667,693.833 152.5,691C 158.255,687.586 163.755,683.753 169,679.5C 169.667,677.833 169.667,676.167 169,674.5C 159.686,667.697 158.02,659.364 164,649.5C 167.251,645.578 171.084,642.412 175.5,640C 186.182,636.39 196.848,633.224 207.5,630.5 Z"/></g>
<g><path style="opacity:1" fill="#6acfab" d="M 719.5,655.5 C 700.857,654.566 682.19,654.233 663.5,654.5C 672.615,652.965 681.948,652.298 691.5,652.5C 698.167,652.667 704.833,652.833 711.5,653C 714.675,652.947 717.342,653.78 719.5,655.5 Z"/></g>
<g><path style="opacity:1" fill="#4dd5a5" d="M 663.5,654.5 C 682.19,654.233 700.857,654.566 719.5,655.5C 729.074,656.561 737.24,660.561 744,667.5C 746.086,671.667 745.753,675.667 743,679.5C 738.582,683.247 734.916,687.58 732,692.5C 731.5,700.007 731.667,707.507 732.5,715C 732.985,722.697 729.985,728.697 723.5,733C 719.5,734.667 715.5,736.333 711.5,738C 699.234,740.086 686.901,741.753 674.5,743C 665.899,744.801 658.233,748.468 651.5,754C 646.102,759.735 640.435,765.068 634.5,770C 625.197,775.995 615.197,777.662 604.5,775C 596.344,769.192 587.678,764.192 578.5,760C 555.177,759.335 533.844,752.668 514.5,740C 502.773,731.45 494.773,720.283 490.5,706.5C 490.667,705.5 490.833,704.5 491,703.5C 511.06,693.587 531.894,685.42 553.5,679C 556.817,678.392 560.151,677.892 563.5,677.5C 572.8,678.829 582.134,679.829 591.5,680.5C 602.19,681.804 607.524,677.137 607.5,666.5C 625.462,659.344 644.129,655.344 663.5,654.5 Z"/></g>
<g><path style="opacity:1" fill="#ccf8ea" d="M 364.5,689.5 C 370.653,688.347 376.986,688.18 383.5,689C 385.32,689.2 386.653,690.034 387.5,691.5C 379.954,689.798 372.287,689.132 364.5,689.5 Z"/></g>
<g><path style="opacity:1" fill="#4dd5a5" d="M 364.5,689.5 C 372.287,689.132 379.954,689.798 387.5,691.5C 403.371,696.179 419.038,701.346 434.5,707C 440.454,708.954 445.288,712.454 449,717.5C 450.333,725.335 447.499,731.168 440.5,735C 432.71,739.354 424.377,741.021 415.5,740C 410.167,738 404.833,736 399.5,734C 392.528,731.992 387.362,734.158 384,740.5C 383.667,750.833 383.333,761.167 383,771.5C 379.911,778.256 374.745,782.423 367.5,784C 345.883,786.948 331.716,778.115 325,757.5C 321.669,747.411 318.336,737.411 315,727.5C 309.637,720.311 303.804,713.645 297.5,707.5C 306.425,684.911 320.758,680.411 340.5,694C 342.333,694.167 344.167,694.333 346,694.5C 352.371,693.563 358.538,691.896 364.5,689.5 Z"/></g>
<g><path style="opacity:1" fill="#4ed5a5" d="M 223.5,747.5 C 227.182,747.335 230.848,747.501 234.5,748C 235.833,750 237.5,751.667 239.5,753C 244.584,753.173 249.584,753.839 254.5,755C 260.291,761.454 265.291,768.454 269.5,776C 269.095,776.945 268.428,777.612 267.5,778C 256.167,778.667 244.833,778.667 233.5,778C 227.665,775.874 221.665,774.374 215.5,773.5C 205.589,776.157 195.589,776.824 185.5,775.5C 181.107,770.35 181.774,765.85 187.5,762C 199.074,755.87 211.074,751.037 223.5,747.5 Z"/></g>
<g><path style="opacity:1" fill="#424242" d="M 43.5,788.5 C 314.167,789.833 584.833,789.833 855.5,788.5C 856.043,788.56 856.376,788.893 856.5,789.5C 819.173,790.5 781.839,790.833 744.5,790.5C 695.167,790.5 645.833,790.5 596.5,790.5C 589.5,790.5 582.5,790.5 575.5,790.5C 526.167,790.5 476.833,790.5 427.5,790.5C 425.167,790.5 422.833,790.5 420.5,790.5C 365.167,790.5 309.833,790.5 254.5,790.5C 249.5,790.5 244.5,790.5 239.5,790.5C 173.83,790.833 108.163,790.5 42.5,789.5C 42.6236,788.893 42.9569,788.56 43.5,788.5 Z"/></g>
<g><path style="opacity:1" fill="#020202" d="M 40.5,784.5 C 42.5,784.5 43.5,785.5 43.5,787.5C 43.5,787.833 43.5,788.167 43.5,788.5C 42.9569,788.56 42.6236,788.893 42.5,789.5C 108.163,790.5 173.83,790.833 239.5,790.5C 239.53,791.497 239.03,792.164 238,792.5C 235.527,791.616 233.193,791.283 231,791.5C 166.381,793.494 101.548,794.161 36.5,793.5C 35.4265,792.749 35.2599,791.749 36,790.5C 37.332,788.34 38.832,786.34 40.5,784.5 Z"/></g>
<g><path style="opacity:1" fill="#010101" d="M 254.5,790.5 C 309.833,790.5 365.167,790.5 420.5,790.5C 419.047,791.825 419.381,792.658 421.5,793C 365.167,793.667 308.833,793.667 252.5,793C 253.756,792.583 254.423,791.75 254.5,790.5 Z"/></g>
<g><path style="opacity:1" fill="#010101" d="M 427.5,790.5 C 476.833,790.5 526.167,790.5 575.5,790.5C 574.909,791.151 574.243,791.818 573.5,792.5C 524.503,793.667 475.503,793.833 426.5,793C 427.252,792.329 427.586,791.496 427.5,790.5 Z"/></g>
<g><path style="opacity:1" fill="#010101" d="M 596.5,790.5 C 645.833,790.5 695.167,790.5 744.5,790.5C 744.5,791.5 744.5,792.5 744.5,793.5C 692.162,793.833 639.829,793.5 587.5,792.5C 590.002,792.379 592.668,792.212 595.5,792C 596.056,791.617 596.389,791.117 596.5,790.5 Z"/></g>
<g><path style="opacity:1" fill="#efefef" d="M 37.5,794.5 C 312.167,794.5 586.833,794.5 861.5,794.5C 861.631,795.239 861.464,795.906 861,796.5C 586.402,795.834 311.902,795.167 37.5,794.5 Z"/></g>
</svg>
